<?xml version="1.0" standalone="no"?>
<!DOCTYPE svg PUBLIC "-//W3C//DTD SVG 20010904//EN"
 "http://www.w3.org/TR/2001/REC-SVG-20010904/DTD/svg10.dtd">
<svg version="1.0" xmlns="http://www.w3.org/2000/svg"
 width="260.000000pt" height="260.000000pt" viewBox="0 0 260.000000 260.000000"
 preserveAspectRatio="xMidYMid meet">
<metadata>
Created by potrace 1.11, written by Peter Selinger 2001-2013
</metadata>
<g transform="translate(0.000000,260.000000) scale(0.100000,-0.100000)"
fill="#000000" stroke="none">
<path d="M0 1300 l0 -1300 1300 0 1300 0 0 1300 0 1300 -1300 0 -1300 0 0
-1300z m1090 715 c30 -9 138 -56 240 -105 102 -48 207 -93 234 -99 69 -17 213
-16 263 2 90 31 186 105 255 196 l26 34 6 -64 c3 -35 8 -119 11 -185 l6 -122
-81 -86 c-108 -114 -175 -148 -299 -154 -126 -6 -197 15 -411 118 -204 98
-274 120 -398 120 -145 0 -256 -52 -369 -173 l-62 -67 -5 33 c-3 17 -8 98 -11
178 l-6 146 41 51 c69 88 171 159 270 188 58 17 216 11 290 -11z m-54 -735
c46 -12 152 -56 254 -105 213 -103 269 -118 404 -113 90 3 108 7 169 37 64 32
175 127 210 180 9 14 18 23 21 20 2 -2 7 -86 11 -186 l7 -182 -78 -80 c-104
-109 -188 -153 -307 -159 -119 -6 -195 15 -397 112 -243 116 -259 121 -410
121 -122 0 -127 -1 -195 -34 -51 -25 -92 -56 -152 -117 -54 -54 -83 -77 -83
-66 -1 9 -5 89 -10 177 l-8 159 34 48 c67 91 175 170 263 194 70 19 178 16
267 -6z"/>
</g>
</svg>
